<?xml version="1.0" encoding="UTF-8"?>
<svg id="Layer_1" data-name="Layer 1" xmlns="http://www.w3.org/2000/svg" viewBox="0 0 265.319 265.319">
  <defs>
    <style>
      .cls-1 {
        fill: #0a0a08;
        stroke-width: 0px;
      }
    </style>
  </defs>
  <path class="cls-1" d="M132.659,39.361c30.387,0,33.986.116,45.986.663,11.096.506,17.122,2.36,21.132,3.918,5.312,2.064,9.103,4.531,13.085,8.513s6.449,7.774,8.513,13.085c1.559,4.011,3.412,10.036,3.919,21.132.548,12.001.663,15.6.663,45.987s-.116,33.986-.663,45.986c-.506,11.096-2.36,17.122-3.919,21.132-2.064,5.312-4.531,9.103-8.513,13.085-3.982,3.982-7.774,6.449-13.085,8.513-4.011,1.559-10.036,3.412-21.132,3.919-11.998.548-15.597.663-45.986.663s-33.988-.116-45.986-.663c-11.096-.506-17.122-2.36-21.132-3.919-5.312-2.064-9.104-4.531-13.086-8.513-3.982-3.982-6.449-7.774-8.513-13.085-1.559-4.011-3.412-10.036-3.919-21.132-.548-12.001-.663-15.6-.663-45.987s.116-33.986.663-45.986c.506-11.096,2.36-17.122,3.919-21.132,2.064-5.312,4.531-9.103,8.513-13.085,3.982-3.982,7.774-6.449,13.086-8.513,4.01-1.558,10.036-3.412,21.131-3.918,12.001-.548,15.6-.663,45.987-.663M132.659,18.856c-30.908,0-34.783.131-46.921.685-12.114.553-20.386,2.476-27.625,5.29-7.484,2.908-13.83,6.8-20.157,13.126-6.327,6.327-10.218,12.673-13.126,20.157-2.813,7.239-4.737,15.512-5.29,27.625-.554,12.138-.684,16.013-.684,46.921s.131,34.783.684,46.921c.553,12.114,2.476,20.386,5.29,27.625,2.908,7.483,6.8,13.83,13.126,20.157,6.327,6.327,12.673,10.218,20.157,13.126,7.239,2.813,15.512,4.737,27.625,5.29,12.138.554,16.013.684,46.921.684s34.783-.131,46.921-.684c12.114-.553,20.386-2.476,27.625-5.29,7.484-2.908,13.83-6.8,20.157-13.126,6.327-6.327,10.218-12.673,13.126-20.157,2.813-7.239,4.737-15.512,5.29-27.625.554-12.138.685-16.013.685-46.921s-.131-34.783-.685-46.921c-.553-12.114-2.476-20.386-5.29-27.625-2.908-7.484-6.8-13.83-13.126-20.157-6.327-6.327-12.673-10.218-20.157-13.126-7.239-2.813-15.512-4.737-27.625-5.29-12.138-.554-16.013-.685-46.921-.685ZM132.659,74.22c-32.275,0-58.44,26.165-58.44,58.44s26.165,58.44,58.44,58.44,58.44-26.165,58.44-58.44-26.165-58.44-58.44-58.44ZM132.659,170.595c-20.951,0-37.935-16.984-37.935-37.935s16.984-37.935,37.935-37.935,37.935,16.984,37.935,37.935-16.984,37.935-37.935,37.935ZM207.065,71.911c0,7.542-6.114,13.657-13.656,13.657s-13.657-6.114-13.657-13.657,6.114-13.656,13.657-13.656,13.656,6.114,13.656,13.656Z"/>
</svg>