<?xml version="1.0" encoding="UTF-8"?>
<svg id="Layer_1" data-name="Layer 1" xmlns="http://www.w3.org/2000/svg" viewBox="0 0 265.319 265.319">
  <defs>
    <style>
      .cls-1 {
        fill: #0a0a08;
        stroke-width: 0px;
      }
    </style>
  </defs>
  <path class="cls-1" d="M175.549,39.77c12.218,0,24.406,4.738,33.576,14.123.318.325.75.51,1.195.51.108,0,.217-.011.325-.033,8.709-1.805,17.109-4.838,24.959-8.998.262-.139.531-.201.789-.201,1.104,0,2.029,1.137,1.524,2.299-2.983,6.867-7.558,12.917-13.332,17.651-1.23,1.008-.415,2.91,1.054,2.91.112,0,.228-.011.347-.034,4.989-.98,9.89-2.366,14.653-4.145.204-.076.404-.111.596-.111,1.265,0,2.16,1.514,1.292,2.658-5.683,7.492-12.45,14.101-20.076,19.62.139,2.016.139,4.031.139,6.065,0,61.981-47.185,133.465-133.465,133.465v-.037c-.063,0-.13,0-.193,0-23.058,0-45.675-6.004-65.652-17.368-1.474-.838-.862-3.087.797-3.087.029,0,.057,0,.086.002,1.407.065,2.816.099,4.226.102.028,0,.056,0,.083,0,19.598,0,38.671-6.117,54.588-17.438,1.23-.875.702-2.8-.798-2.969-17.289-1.946-32.156-13.338-38.495-29.628-.426-1.094.411-2.233,1.54-2.233.074,0,.149.005.226.015,2.04.27,4.091.405,6.141.405,1.798,0,3.595-.104,5.381-.311,1.706-.198,1.972-2.599.356-3.18-18.386-6.6-31.038-24.124-31.038-44.141v-.594c4.807,2.677,10.038,4.476,15.447,5.326.095.015.188.022.278.022,1.466,0,2.221-1.896,1.032-2.917-16.332-14.019-21.121-37.616-11.178-57.009.303-.591.886-.9,1.475-.9.466,0,.935.194,1.274.595,23.313,27.638,56.875,44.612,92.966,47.002.037.002.074.004.11.004,1.011,0,1.8-.927,1.612-1.938-2.904-15.659,2.326-31.787,14-42.758,9.067-8.523,20.626-12.746,32.16-12.746M175.549,19.77c-17.105,0-33.391,6.454-45.858,18.174-10.526,9.892-17.382,22.623-19.958,36.329-23.142-5.669-44.251-18.594-59.745-36.962-4.126-4.893-10.163-7.7-16.562-7.7-8.163,0-15.548,4.512-19.272,11.776-6.842,13.344-9.003,28.804-6.085,43.531.558,2.817,1.298,5.59,2.21,8.298-2.497,3.385-3.906,7.53-3.906,11.873v.594c0,17.071,6.541,33.092,17.596,45.181-.658,3.817-.288,7.797,1.159,11.516,3.249,8.349,8.041,15.788,13.996,22.023-3.504.504-7.061.759-10.652.759h-.083c-1.068-.003-2.196-.03-3.305-.081-.358-.016-.683-.023-1.008-.023-9.801,0-18.398,6.626-20.908,16.114-2.51,9.49,1.694,19.506,10.223,24.358,22.667,12.893,48.385,19.792,74.447,19.98.426.027.855.041,1.287.041,23.53,0,45.621-4.707,65.66-13.99,18.457-8.55,34.751-20.755,48.431-36.274,24.245-27.506,38.472-63.675,39.333-99.732,5.865-5.133,11.194-10.846,15.912-17.066,5.005-6.599,5.828-15.3,2.149-22.708-.826-1.664-1.84-3.186-3.009-4.547,1.167-5.563.104-11.402-3.084-16.262-4.024-6.135-10.8-9.798-18.125-9.798-3.52,0-7.031.875-10.154,2.529-3.64,1.929-7.423,3.547-11.312,4.842-11.356-8.297-24.998-12.772-39.378-12.772h0Z"/>
</svg>